<svg width="138" height="35" viewBox="0 0 138 35" fill="none" xmlns="http://www.w3.org/2000/svg">
<path d="M0 34.1702V33.1164L0.953455 32.8655C1.62255 32.6647 2.05745 32.3636 2.25818 31.9622C2.45891 31.5607 2.576 31.0087 2.60945 30.3062C2.64291 28.3993 2.65964 26.4756 2.65964 24.5353C2.65964 22.5615 2.65964 20.5876 2.65964 18.6138V16.5564C2.65964 14.616 2.65964 12.6756 2.65964 10.7353C2.65964 8.79491 2.64291 6.85455 2.60945 4.91418C2.576 4.21164 2.47564 3.67636 2.30836 3.30836C2.14109 2.90691 1.73964 2.60582 1.104 2.40509L0 2.05382V1H24.1375L24.4887 9.48073H23.1338L20.5244 4.51273C20.1898 3.87709 19.8218 3.392 19.4204 3.05746C19.0189 2.68945 18.4335 2.50545 17.664 2.50545H9.936C9.90255 4.74691 9.86909 7.05527 9.83564 9.43055C9.83564 11.7724 9.83564 14.1142 9.83564 16.456H14.6531C15.4225 16.456 15.9913 16.2887 16.3593 15.9542C16.7273 15.5862 17.0785 15.0844 17.4131 14.4487L18.4167 12.592H19.5207V21.7753H18.4167L17.4131 19.9687C17.0451 19.2996 16.6771 18.7978 16.3091 18.4633C15.9745 18.0953 15.4225 17.9113 14.6531 17.9113H9.83564C9.83564 20.1193 9.83564 22.2436 9.83564 24.2844C9.83564 26.2916 9.85236 28.2655 9.88582 30.2058C9.88582 31.5775 10.5047 32.4305 11.7425 32.7651L13.248 33.1164V34.1702H0Z" fill="white"/>
<path d="M36.8499 34.8727C34.3743 34.8727 32.1997 34.3542 30.3263 33.3171C28.4863 32.28 27.0477 30.808 26.0107 28.9011C25.007 26.9942 24.5052 24.7193 24.5052 22.0764C24.5052 19.4335 25.0405 17.1585 26.111 15.2516C27.215 13.3447 28.687 11.8895 30.527 10.8858C32.4005 9.84873 34.5081 9.33018 36.8499 9.33018C39.1917 9.33018 41.2827 9.84873 43.1227 10.8858C44.9961 11.8895 46.4681 13.3447 47.5387 15.2516C48.6427 17.1251 49.1947 19.4 49.1947 22.0764C49.1947 24.7193 48.6761 27.0109 47.639 28.9513C46.6354 30.8582 45.2136 32.3302 43.3736 33.3673C41.5336 34.3709 39.359 34.8727 36.8499 34.8727ZM36.8499 33.4676C38.0543 33.4676 39.0245 33.1498 39.7605 32.5142C40.5299 31.8451 41.0819 30.6909 41.4165 29.0516C41.751 27.4124 41.9183 25.1207 41.9183 22.1767C41.9183 19.1993 41.751 16.8909 41.4165 15.2516C41.0819 13.5789 40.5299 12.4247 39.7605 11.7891C39.0245 11.12 38.0543 10.7855 36.8499 10.7855C35.6456 10.7855 34.6754 11.12 33.9394 11.7891C33.2034 12.4247 32.6514 13.5789 32.2834 15.2516C31.9488 16.8909 31.7816 19.1993 31.7816 22.1767C31.7816 25.1207 31.9488 27.4124 32.2834 29.0516C32.6514 30.6909 33.2034 31.8451 33.9394 32.5142C34.6754 33.1498 35.6456 33.4676 36.8499 33.4676Z" fill="white"/>
<path d="M51.5026 34.1702V33.2167L52.2554 32.9658C52.9244 32.7985 53.3761 32.5142 53.6103 32.1127C53.8779 31.7113 54.0117 31.176 54.0117 30.5069V15.8036C53.9783 15.0676 53.8444 14.5156 53.6103 14.1476C53.3761 13.7462 52.9244 13.4785 52.2554 13.3447L51.5026 13.144V12.2407L59.6823 9.33018L60.2844 9.88218L60.7361 14.2982V14.6495C61.2379 13.7127 61.8735 12.8429 62.643 12.04C63.4124 11.2371 64.2488 10.5847 65.1521 10.0829C66.0554 9.58109 66.9586 9.33018 67.8619 9.33018C69.1332 9.33018 70.0866 9.66473 70.7223 10.3338C71.3579 11.0029 71.6757 11.856 71.6757 12.8931C71.6757 14.0305 71.3579 14.9004 70.7223 15.5025C70.0866 16.0713 69.3172 16.3556 68.4139 16.3556C67.0757 16.3556 65.9215 15.7535 64.9514 14.5491L64.851 14.4487C64.5164 14.0473 64.1317 13.8298 63.6968 13.7964C63.2954 13.7295 62.8939 13.9302 62.4924 14.3985C62.1579 14.7331 61.8401 15.1345 61.539 15.6029C61.2714 16.0378 61.0204 16.5564 60.7863 17.1585V30.3062C60.7863 30.9418 60.9201 31.4771 61.1877 31.912C61.4554 32.3135 61.907 32.5978 62.5426 32.7651L64.0481 33.2167V34.1702H51.5026Z" fill="white"/>
<path d="M85.1205 9.33018C87.2282 9.33018 89.0347 9.76509 90.5402 10.6349C92.0456 11.5047 93.1998 12.7091 94.0027 14.248C94.8391 15.7535 95.2573 17.4931 95.2573 19.4669C95.2573 19.9018 95.2405 20.32 95.2071 20.7215C95.1736 21.0895 95.1067 21.4407 95.0063 21.7753H79.9016C79.9351 25.2211 80.5707 27.6967 81.8085 29.2022C83.0798 30.7076 84.9198 31.4604 87.3285 31.4604C89.0012 31.4604 90.3562 31.1927 91.3932 30.6575C92.4303 30.0887 93.3838 29.3025 94.2536 28.2989L95.0565 29.0516C94.0529 30.8916 92.6812 32.3302 90.9416 33.3673C89.2354 34.3709 87.1947 34.8727 84.8194 34.8727C82.4442 34.8727 80.3533 34.3709 78.5467 33.3673C76.7402 32.3636 75.3183 30.9251 74.2812 29.0516C73.2776 27.1447 72.7758 24.8698 72.7758 22.2269C72.7758 19.4836 73.3612 17.1585 74.5322 15.2516C75.7365 13.3447 77.2754 11.8895 79.1489 10.8858C81.0558 9.84873 83.0463 9.33018 85.1205 9.33018ZM84.8696 10.7855C83.8994 10.7855 83.0463 11.0698 82.3103 11.6385C81.6078 12.1738 81.0391 13.144 80.6042 14.5491C80.2027 15.9207 79.9685 17.8611 79.9016 20.3702H88.8842C89.2522 16.9913 89.1183 14.5491 88.4827 13.0436C87.8471 11.5382 86.6427 10.7855 84.8696 10.7855Z" fill="white"/>
<path d="M106.494 34.8727C104.889 34.8727 103.433 34.6887 102.129 34.3207C100.857 33.9862 99.6363 33.5011 98.4654 32.8655V26.944H99.8203L101.326 29.8044C101.961 31.0422 102.681 31.9622 103.484 32.5644C104.32 33.1665 105.374 33.4676 106.645 33.4676C108.217 33.4676 109.472 33.1331 110.409 32.464C111.345 31.7615 111.814 30.8247 111.814 29.6538C111.814 28.5833 111.462 27.7135 110.76 27.0444C110.057 26.3753 108.803 25.7564 106.996 25.1876L104.788 24.4851C102.814 23.8829 101.242 22.9796 100.071 21.7753C98.9337 20.5375 98.365 18.9985 98.365 17.1585C98.365 15.72 98.7497 14.4153 99.5192 13.2444C100.289 12.04 101.409 11.0865 102.881 10.384C104.353 9.68145 106.143 9.33018 108.251 9.33018C109.622 9.33018 110.877 9.49745 112.014 9.832C113.185 10.1331 114.323 10.568 115.427 11.1367L115.126 16.5062H113.821L112.265 13.6458C111.73 12.5753 111.178 11.8393 110.609 11.4378C110.074 11.0029 109.238 10.7855 108.1 10.7855C106.896 10.7855 105.825 11.1033 104.889 11.7389C103.985 12.3411 103.534 13.1942 103.534 14.2982C103.534 15.3353 103.918 16.1884 104.688 16.8575C105.457 17.4931 106.695 18.0953 108.401 18.664L110.559 19.3164C113.001 20.0858 114.741 21.1062 115.778 22.3775C116.815 23.6487 117.334 25.1709 117.334 26.944C117.334 29.3193 116.38 31.2429 114.473 32.7149C112.6 34.1535 109.94 34.8727 106.494 34.8727Z" fill="white"/>
<path d="M129.055 34.8727C126.981 34.8727 125.341 34.3709 124.137 33.3673C122.966 32.3302 122.381 30.6575 122.381 28.3491C122.381 27.5462 122.381 26.7935 122.381 26.0909C122.414 25.3549 122.431 24.5018 122.431 23.5316V11.6385H118.868V10.5345L120.223 10.3338C121.193 10.1665 122.013 9.86546 122.682 9.43055C123.384 8.99564 124.02 8.39345 124.589 7.624L127.85 3.10764H129.356L129.205 10.0829H134.926V11.6385H129.155V28.7505C129.155 29.9549 129.406 30.8582 129.908 31.4604C130.443 32.0625 131.095 32.3636 131.865 32.3636C132.534 32.3636 133.136 32.2131 133.671 31.912C134.207 31.5775 134.742 31.1425 135.277 30.6073L135.93 31.36C135.294 32.464 134.407 33.3338 133.27 33.9695C132.133 34.5716 130.727 34.8727 129.055 34.8727Z" fill="white"/>
</svg>
