<svg width="151" height="171" viewBox="0 0 151 171" fill="none" xmlns="http://www.w3.org/2000/svg">
<path d="M73.7359 43.1761C68.8859 41.6561 63.5959 43.1461 60.3759 47.0761C55.1059 53.5061 48.1559 62.4461 44.0159 69.6661C36.6859 82.4461 32.9859 98.3261 38.4759 111.996C43.9659 125.666 60.8059 135.026 74.1859 128.866C83.2159 124.706 88.8059 114.896 98.0459 111.246C100.966 110.096 104.306 109.506 105.276 105.366C105.786 103.166 105.396 100.856 104.346 98.8561C102.106 94.5661 97.8759 91.9762 94.8359 88.3362C90.8259 83.5262 89.0959 76.8961 90.2459 70.7461C91.6359 63.3061 96.9059 56.9461 97.2359 49.2361C97.4159 45.1361 95.4759 41.1361 92.0159 38.9361C84.3159 34.0461 80.7359 44.6961 74.7359 43.4461C74.3859 43.3661 74.0559 43.2761 73.7359 43.1761Z" stroke="#14241C" stroke-miterlimit="10"/>
<path d="M80.7858 48.0162C80.7858 48.0162 69.1458 50.2562 64.3358 58.7962C62.5258 62.0162 62.3958 65.9762 60.5058 69.1462C58.1358 73.1162 53.4558 75.1462 50.6458 78.8162C49.1058 80.8262 48.1958 83.2462 47.5758 85.7062C45.2258 94.9362 46.8058 105.096 51.8558 113.176C53.1758 115.286 55.2758 117.496 57.7158 117.006C60.4658 116.456 62.6358 112.636 65.1358 113.906C65.7958 114.236 66.2458 114.876 66.8258 115.336C69.0758 117.096 72.3358 115.716 74.8158 114.306C78.1358 112.416 81.4658 110.516 84.7858 108.626C87.4058 107.136 90.2958 105.276 90.8558 102.316C91.1658 100.676 90.6358 98.8962 89.4658 97.6962C88.6758 96.8862 87.6558 96.3562 86.7058 95.7262C80.2258 91.4462 77.8558 81.9662 81.5658 75.1362C82.8758 72.7262 84.8958 70.3762 84.5858 67.6462C84.4658 66.6262 84.0258 65.6762 83.8658 64.6662C83.3158 61.2562 85.7358 58.3762 88.1158 56.4362C89.0358 55.6862 89.7558 54.4362 90.3258 53.0762C91.5658 50.1062 89.0158 46.9262 85.8358 47.3562L80.7858 48.0162Z" stroke="#14241C" stroke-miterlimit="10"/>
<path d="M43.1257 42.9762C38.2657 50.9262 29.4457 55.7062 23.9357 63.2262C23.0657 64.4062 22.1957 65.6961 22.1457 67.1561C22.1157 68.0561 22.3957 68.9362 22.5357 69.8162C23.1757 73.7062 21.1757 77.4661 19.7957 81.1561C14.9957 94.0561 17.6157 108.396 20.2957 121.896C21.1557 126.236 22.1157 130.806 25.0257 134.136C27.9357 137.476 32.3257 139.056 36.0657 141.426C41.9557 145.156 47.0057 151.216 53.9557 151.606C56.3757 151.736 58.7657 151.136 61.1057 150.496C68.8657 148.366 76.4857 145.726 83.9057 142.616C87.6757 141.036 91.4957 139.306 95.5757 139.016C97.5157 138.876 99.4857 139.076 101.406 138.766C105.196 138.146 108.376 135.626 111.226 133.046C114.896 129.726 118.336 126.146 121.506 122.346C125.546 117.506 129.236 112.156 130.756 106.036C132.276 99.9161 131.306 92.8862 126.966 88.3062C124.696 85.9162 121.696 84.3362 119.316 82.0562C116.936 79.7762 115.156 76.2962 116.356 73.2262C117.466 70.3862 120.766 68.7761 121.596 65.8461C122.536 62.5561 120.006 59.4162 118.146 56.5462C114.246 50.4962 112.886 42.8662 114.456 35.8362C115.056 33.1362 116.076 30.4462 115.806 27.7062C115.396 23.6862 112.186 20.3762 108.466 18.8062C104.746 17.2462 100.576 17.1562 96.5457 17.3762C86.0657 17.9362 75.7957 20.3961 65.5957 22.8461C61.8157 23.7561 57.9657 24.6862 54.6257 26.6662C47.7757 30.7062 45.5657 38.9762 43.1257 42.9762Z" stroke="#14241C" stroke-miterlimit="10"/>
<path d="M50.2857 21.056C46.3557 22.606 42.8857 25.096 40.1357 28.306C33.0857 36.536 18.6557 54.0361 12.9957 65.7561C12.4157 66.9561 11.8857 68.236 11.9357 69.556C11.9957 71.206 12.9257 72.676 13.5857 74.186C17.8557 84.086 10.1957 95.016 10.0657 105.796C9.89572 119.696 22.1557 131.106 23.2957 144.966C23.3957 146.206 23.4257 147.506 24.0357 148.586C25.3957 150.986 28.7257 151.076 31.4057 151.746C38.6157 153.556 43.4757 161.286 50.8557 162.216C60.1057 163.396 67.6857 153.366 77.0057 153.626C81.5757 153.756 87.0357 156.106 90.1557 152.756C90.8857 151.966 91.3357 150.966 91.9557 150.096C96.3857 143.906 106.366 146.696 113.146 143.236C115.516 142.026 117.406 140.086 119.256 138.186C123.496 133.856 127.736 129.516 131.976 125.186C133.936 123.176 135.976 121.146 137.246 118.636C138.526 116.116 138.956 113.256 139.376 110.456C140.176 105.046 140.986 99.646 141.786 94.236C141.996 92.796 142.206 91.276 141.716 89.906C140.876 87.596 138.386 86.4361 136.196 85.3261C132.936 83.6761 129.866 81.6361 127.086 79.2661C125.826 78.1961 124.536 76.876 124.466 75.216C124.396 73.466 125.696 72.006 126.886 70.716C129.066 68.356 131.156 65.906 133.126 63.366C133.916 62.346 134.726 61.1761 134.576 59.8961C134.386 58.3061 132.776 57.2761 131.226 56.8961C129.676 56.5161 128.016 56.566 126.526 55.986C121.926 54.196 121.426 47.616 123.576 43.176C124.566 41.136 125.966 39.126 125.826 36.866C125.606 33.216 121.406 30.226 122.416 26.716C122.766 25.506 123.696 24.546 124.156 23.376C125.546 19.846 122.246 16.196 118.866 14.466C109.956 9.89601 99.3057 11.1861 89.3957 12.5861C78.1457 14.1761 66.8457 15.776 55.9557 19.036C54.0657 19.616 52.0757 20.346 50.2857 21.056Z" stroke="#14241C" stroke-miterlimit="10"/>
<path d="M36.7856 21.366C35.9056 22.086 35.2956 23.066 35.0156 24.166C32.7556 32.806 23.6956 38.106 16.9056 44.266C9.37563 51.096 3.97563 60.236 1.62563 70.116C1.02563 72.636 0.625601 75.356 1.5356 77.786C2.7756 81.106 6.16562 83.196 7.64562 86.416C9.83562 91.176 7.3056 96.606 5.6956 101.596C3.6156 108.056 3.13562 115.026 4.30562 121.716C4.81562 124.626 5.6656 127.566 7.4756 129.896C8.9056 131.736 10.8356 133.106 12.4756 134.766C15.7256 138.046 17.7456 142.516 18.0756 147.116C18.3256 150.576 17.7556 154.436 19.8656 157.196C21.3756 159.176 23.9056 160.036 26.2756 160.796C32.9056 162.916 39.5356 165.036 46.1656 167.156C51.5456 168.876 57.0756 170.626 62.7156 170.326C75.2256 169.676 85.2856 159.366 97.5856 156.996C101.786 156.186 106.246 156.306 110.106 154.466C113.816 152.706 116.486 149.366 119.686 146.796C123.636 143.616 128.436 141.596 132.276 138.266C136.516 134.596 139.316 129.576 142.026 124.666C145.496 118.396 149.036 111.896 149.726 104.756C150.286 98.986 148.936 93.216 147.596 87.566C146.776 84.116 145.676 80.276 142.586 78.546C140.246 77.236 137.296 77.486 135.016 75.916C134.416 75.506 133.926 74.946 133.606 74.296C132.626 72.296 133.716 70.996 134.786 69.866C137.446 67.056 140.496 64.396 141.916 60.796C143.336 57.196 142.336 52.246 138.716 50.856C137.636 50.446 136.456 50.386 135.376 49.986C131.986 48.736 130.666 44.496 131.126 40.916C131.586 37.336 133.336 34.056 134.206 30.556C135.076 27.056 134.846 22.836 132.076 20.516C130.786 19.436 129.046 18.846 128.116 17.436C127.126 15.936 127.376 13.976 127.176 12.196C126.636 7.34602 122.476 3.47599 117.836 1.97599C113.196 0.475986 108.146 0.936013 103.346 1.81601C91.3656 4.00601 79.9356 8.686 67.9056 10.556C61.2756 11.586 54.4156 11.786 48.1856 14.266C43.2856 16.246 39.0556 19.506 36.7856 21.366Z" stroke="#14241C" stroke-miterlimit="10"/>
<path d="M74.0957 29.9962C65.8557 30.2862 57.7357 33.3763 51.3757 38.6463C50.4357 39.4263 49.5057 40.3062 49.1457 41.4662C48.8257 42.5062 49.0157 43.6163 49.0257 44.7063C49.1257 51.3963 43.0957 56.2563 38.6557 61.2563C32.1557 68.5763 28.3357 78.0862 27.1857 87.8062C26.0357 97.5262 27.4657 107.456 30.5657 116.746C31.6357 119.966 32.9157 123.116 34.3757 126.176C35.6257 128.786 37.1357 131.466 39.6657 132.886C42.0457 134.216 44.9757 134.216 47.4057 135.446C49.7157 136.626 51.4457 138.846 53.8957 139.696C55.9857 140.426 58.2857 140.036 60.4657 139.646C65.9357 138.656 71.3957 137.666 76.8657 136.686C78.9757 136.306 81.1157 135.916 83.0457 134.986C85.4057 133.856 87.3157 131.996 89.4057 130.426C91.8957 128.546 94.8557 127.016 97.9757 127.126C99.3057 127.166 100.656 127.506 101.936 127.176C102.896 126.936 103.716 126.346 104.506 125.746C109.886 121.656 114.596 116.436 117.076 110.146C119.556 103.856 119.586 96.4063 116.176 90.5663C113.876 86.6163 110.166 83.5563 108.296 79.3963C106.206 74.7363 106.726 69.2163 108.696 64.5163C109.826 61.8263 111.446 58.9462 110.546 56.1762C110.056 54.6762 108.886 53.4863 108.206 52.0663C106.736 48.9763 107.686 45.0862 105.996 42.1062C104.996 40.3362 103.106 38.9862 102.816 36.9762C102.456 34.5062 104.546 31.5062 102.736 29.7962C102.216 29.3062 101.496 29.0963 100.796 28.9463C96.0757 27.9163 91.1657 28.4462 86.3657 28.9762C81.4557 29.4862 76.5757 30.0362 74.0957 29.9962Z" stroke="#14241C" stroke-miterlimit="10"/>
<path d="M67.096 72.0262C65.316 73.8062 65.106 75.9762 62.196 79.4162C59.286 82.8562 56.666 87.0762 57.156 91.5662C57.376 93.5362 58.186 95.3962 59.226 97.0762C59.876 98.1262 60.646 99.1462 61.706 99.7762C62.766 100.396 64.186 100.546 65.216 99.8662C65.506 99.6762 65.786 99.4162 66.126 99.4162C66.616 99.4262 66.926 99.9562 67.056 100.426C67.606 102.346 67.246 104.726 68.736 106.066C70.126 107.326 72.476 106.816 73.796 105.486C75.116 104.156 75.676 102.266 76.196 100.466C76.366 99.8862 76.526 99.2462 76.276 98.6862C75.966 97.9862 75.136 97.7062 74.536 97.2262C73.406 96.3162 73.136 94.6762 73.336 93.2362C73.536 91.7962 74.126 90.4362 74.386 89.0062C75.006 85.5762 73.746 81.8562 75.076 78.6362C75.476 77.6662 76.106 76.7962 76.596 75.8662C77.306 74.5362 77.766 73.0662 77.936 71.5562C78.046 70.5862 77.966 69.4562 77.196 68.8562C76.786 68.5362 76.246 68.4262 75.726 68.3362C74.366 68.0862 74.086 67.3462 72.786 67.8062C71.486 68.2662 68.436 70.6962 67.096 72.0262Z" stroke="#14241C" stroke-miterlimit="10"/>
</svg>
